{"title":"Krishna Aur Kans [2012].720p.BRRip.[Dual Audio].6Ch.[Hindi+Engli","uid":7602803,"size":1480872465,"categoryP":"video","categoryS":"hd___movies","magnet":"?xt=urn:btih:55c862ce5fcb5b62b4a05f698930c7f8d66db509&amp;dn=Krishna+Aur+Kans+%5B2012%5D.720p.BRRip.%5BDual+Audio%5D.6Ch.%5BHindi%2BEngli&amp;tr=udp%3A%2F%2Ftracker.openbittorrent.com%3A80&amp;tr=udp%3A%2F%2Fopen.demonii.com%3A1337&amp;tr=udp%3A%2F%2Ftracker.coppersurfer.tk%3A6969&amp;tr=udp%3A%2F%2Fexodus.desync.com%3A6969","seeders":2,"leechers":3,"uploader":"TeamExD","files":4,"time":1346867472,"description":"Format                                   : Matroska\nFormat version                           : Version 2\nFile size                                : 1.36 GiB\nDuration                                 : 1h 58mn\nOverall bit rate                         : 1 654 Kbps\nMovie name                               : Krishna Aur Kans [2012].720p.BRRip.x264.[Dual Audio].6Ch.[Hindi+English].by K@rtik [ExD Exclusive] \nCodec ID                                 : V_MPEG4/ISO/AVC\nDuration                                 : 1h 58mn\nBit rate                                 : 1 205 Kbps\nWidth                                    : 1 280 pixels\nHeight                                   : 544 pixels\nDisplay aspect ratio                     : 2.35:1\nFrame rate                               : 23.976 fps\nColor space                              : YUV\nChroma subsampling                       : 4:2:0\nStream size                              : 991 MiB (71%)\nTitle                                    : K@rtik\nCodec ID                                 : A_AC3\nDuration                                 : 1h 58mn\nBit rate                                 : 224 Kbps\nChannel(s)                               : 6 channels\nChannel positions                        : Front: L C R, Side: L R, LFE\nSampling rate                            : 48.0 KHz\nStream size                              : 189 MiB (14%)\nTitle                                    : K@rtik\nLanguage                                 : Hindi &lt;a href=&quot;\nhttp://img210.imageshack.us/img210/5512/exdp.jpg&quot; rel=&quot;nofollow&quot; target=&quot;_NEW&quot;&gt;\nhttp://img210.imageshack.us/img210/5512/exdp.jpg&lt;/a&gt; &lt;a href=&quot;\nhttp://img401.imageshack.us/img401/8336/64847437.png&quot; rel=&quot;nofollow&quot; target=&quot;_NEW&quot;&gt;\nhttp://img401.imageshack.us/img401/8336/64847437.png&lt;/a&gt; &lt;a href=&quot;\nhttp://img222.imageshack.us/img222/9924/90221155.png&quot; rel=&quot;nofollow&quot; target=&quot;_NEW&quot;&gt;\nhttp://img222.imageshack.us/img222/9924/90221155.png&lt;/a&gt; &lt;a href=&quot;\nhttp://img696.imageshack.us/img696/7758/54109357.png&quot; rel=&quot;nofollow&quot; target=&quot;_NEW&quot;&gt;\nhttp://img696.imageshack.us/img696/7758/54109357.png&lt;/a&gt; &lt;a href=&quot;\nhttp://img201.imageshack.us/img201/161/84902989.png&quot; rel=&quot;nofollow&quot; target=&quot;_NEW&quot;&gt;\nhttp://img201.imageshack.us/img201/161/84902989.png&lt;/a&gt; &lt;a href=&quot;\nhttp://img204.imageshack.us/img204/5544/21607374.png&quot; rel=&quot;nofollow&quot; target=&quot;_NEW&quot;&gt;\nhttp://img204.imageshack.us/img204/5544/21607374.png&lt;/a&gt; &lt;a href=&quot;\nhttp://img99.imageshack.us/img99/6907/71280363.png&quot; rel=&quot;nofollow&quot; target=&quot;_NEW&quot;&gt;\nhttp://img99.imageshack.us/img99/6907/71280363.png&lt;/a&gt; &lt;a href=&quot;\nhttp://img839.imageshack.us/img839/1060/23930133.png&quot; rel=&quot;nofollow&quot; target=&quot;_NEW&quot;&gt;\nhttp://img839.imageshack.us/img839/1060/23930133.png&lt;/a&gt; &lt;a href=&quot;\nhttp://img854.imageshack.us/img854/4932/85190772.png&quot; rel=&quot;nofollow&quot; target=&quot;_NEW&quot;&gt;\nhttp://img854.imageshack.us/img854/4932/85190772.png&lt;/a&gt; &lt;a href=&quot;\nhttp://img401.imageshack.us/img401/8494/81719469.png&quot; rel=&quot;nofollow&quot; target=&quot;_NEW&quot;&gt;\nhttp://img401.imageshack.us/img401/8494/81719469.png&lt;/a&gt; &lt;a href=&quot;\nhttp://img829.imageshack.us/img829/5623/39023821.png&quot; rel=&quot;nofollow&quot; target=&quot;_NEW&quot;&gt;\nhttp://img829.imageshack.us/img829/5623/39023821.png&lt;/a&gt; &lt;a href=&quot;\nhttp://img809.imageshack.us/img809/7197/63173018.png&quot; rel=&quot;nofollow&quot; target=&quot;_NEW&quot;&gt;\nhttp://img809.imageshack.us/img809/7197/63173018.png&lt;/a&gt; &lt;a href=&quot;\nhttp://img222.imageshack.us/img222/4091/27298923.png&quot; rel=&quot;nofollow&quot; target=&quot;_NEW&quot;&gt;\nhttp://img222.imageshack.us/img222/4091/27298923.png&lt;/a&gt; &lt;a href=&quot;\nhttp://img832.imageshack.us/img832/6125/16610301.png&quot; rel=&quot;nofollow&quot; target=&quot;_NEW&quot;&gt;\nhttp://img832.imageshack.us/img832/6125/16610301.png&lt;/a&gt;\n","torrent":{"xt":"urn:btih:55c862ce5fcb5b62b4a05f698930c7f8d66db509","amp;dn":"Krishna+Aur+Kans+%5B2012%5D.720p.BRRip.%5BDual+Audio%5D.6Ch.%5BHindi%2BEngli","amp;tr":["udp%3A%2F%2Ftracker.openbittorrent.com%3A80","udp%3A%2F%2Fopen.demonii.com%3A1337","udp%3A%2F%2Ftracker.coppersurfer.tk%3A6969","udp%3A%2F%2Fexodus.desync.com%3A6969"],"infoHash":"55c862ce5fcb5b62b4a05f698930c7f8d66db509","infoHashBuffer":{"type":"Buffer","data":[85,200,98,206,95,203,91,98,180,160,95,105,137,48,199,248,214,109,181,9]},"announce":[],"urlList":[]}}